# xmcd CD database file
#
# Track frame offsets:
#	150
#	17649
#	40522
#	57206
#	76061
#	93973
#	111685
#	126559
#	142183
#	155142
#	173566
#
# Disc length: 2522 seconds
#
# Revision: 0
# Processed by: cddbd v1.5.2PL0 Copyright (c) Steve Scherf et al.
# Submitted via: CDex 1.51
#
DISCID=9109d80b
DTITLE=Billy Ray Cyrus - Southern Rain
DYEAR=2000
DGENRE=Country
TTITLE0=1. You Won't Be Lonely Now
TTITLE1=2. Southern Rain 
TTITLE2=3. All I'm Thinking About Is You
TTITLE3=4. We The People 
TTITLE4=5. I Will 
TTITLE5=6. Love You Back 
TTITLE6=7. Burn Down The Trailer Park 
TTITLE7=8. Everywhere I Wanna Be 
TTITLE8=9. Crazy 'Bout You Baby 
TTITLE9=10. Without You 
TTITLE10=11. Hey Elvis (Bonus Track) 
EXTD=YEAR: 2000
EXTT0=
EXTT1=
EXTT2=
EXTT3=
EXTT4=
EXTT5=
EXTT6=
EXTT7=
EXTT8=
EXTT9=
EXTT10=
PLAYORDER=
